<svg xmlns="http://www.w3.org/2000/svg" height="40px" viewBox="0 -960 960 960" width="40px" fill="#002d62"><path d="M535.51-504.68q22.72-22.54 22.72-55.32t-22.72-55.51q-22.73-22.72-55.51-22.72t-55.32 22.72q-22.54 22.73-22.54 55.51t22.54 55.32q22.54 22.54 55.32 22.54t55.51-22.54ZM480-180.62q126.13-114.24 186.91-204.47 60.77-90.23 60.77-168.79 0-111.8-71.9-182.8-71.9-71-175.78-71t-175.78 71q-71.9 71-71.9 182.8 0 78.56 61.77 168.51Q355.87-295.42 480-180.62Zm0 116.45Q311.46-205.7 227.82-324.42q-83.65-118.72-83.65-229.46 0-156.41 101.5-249.37Q347.16-896.2 480-896.2q132.84 0 234.52 92.95Q816.2-710.29 816.2-553.88q0 110.74-83.83 229.46Q648.54-205.7 480-64.17ZM480-560Z"/></svg>