<svg xmlns="http://www.w3.org/2000/svg" height="24px" viewBox="0 -960 960 960" width="24px" fill="#000000"><path d="M603.5-298.5Q659-337 684-400H276q25 63 80.5 101.5T480-260q68 0 123.5-38.5ZM312-520l44-42 42 42 42-42-84-86-86 86 42 42Zm250 0 42-42 44 42 42-42-86-86-84 86 42 42ZM324-111.5Q251-143 197-197t-85.5-127Q80-397 80-480t31.5-156Q143-709 197-763t127-85.5Q397-880 480-880t156 31.5Q709-817 763-763t85.5 127Q880-563 880-480t-31.5 156Q817-251 763-197t-127 85.5Q563-80 480-80t-156-31.5ZM480-480Zm227 227q93-93 93-227t-93-227q-93-93-227-93t-227 93q-93 93-93 227t93 227q93 93 227 93t227-93Z"/></svg>